{
	"asset":{
		"generator":"Khronos glTF Blender I/O v4.3.47",
		"version":"2.0"
	},
	"scene":0,
	"scenes":[
		{
			"name":"Scene",
			"nodes":[
				0
			]
		}
	],
	"nodes":[
		{
			"mesh":0,
			"name":"Sphere",
			"scale":[
				1.222318172454834,
				2.3720951080322266,
				1.2429001331329346
			]
		}
	],
	"materials":[
		{
			"doubleSided":true,
			"name":"Material.001"
		}
	],
	"meshes":[
		{
			"name":"Sphere",
			"primitives":[
				{
					"attributes":{
						"POSITION":0,
						"NORMAL":1,
						"TEXCOORD_0":2,
						"COLOR_0":3,
						"COLOR_1":4
					},
					"indices":5,
					"material":0
				}
			]
		}
	],
	"accessors":[
		{
			"bufferView":0,
			"componentType":5126,
			"count":1983,
			"max":[
				1.3860260248184204,
				1.082902193069458,
				1.3207896947860718
			],
			"min":[
				-1.3947358131408691,
				-1.1123210191726685,
				-1.4186794757843018
			],
			"type":"VEC3"
		},
		{
			"bufferView":1,
			"componentType":5126,
			"count":1983,
			"type":"VEC3"
		},
		{
			"bufferView":2,
			"componentType":5126,
			"count":1983,
			"type":"VEC2"
		},
		{
			"bufferView":3,
			"componentType":5121,
			"count":1983,
			"normalized":true,
			"type":"VEC4"
		},
		{
			"bufferView":4,
			"componentType":5123,
			"count":1983,
			"normalized":true,
			"type":"VEC4"
		},
		{
			"bufferView":5,
			"componentType":5123,
			"count":2880,
			"type":"SCALAR"
		}
	],
	"bufferViews":[
		{
			"buffer":0,
			"byteLength":23796,
			"byteOffset":0,
			"target":34962
		},
		{
			"buffer":0,
			"byteLength":23796,
			"byteOffset":23796,
			"target":34962
		},
		{
			"buffer":0,
			"byteLength":15864,
			"byteOffset":47592,
			"target":34962
		},
		{
			"buffer":0,
			"byteLength":7932,
			"byteOffset":63456,
			"target":34962
		},
		{
			"buffer":0,
			"byteLength":15864,
			"byteOffset":71388,
			"target":34962
		},
		{
			"buffer":0,
			"byteLength":5760,
			"byteOffset":87252,
			"target":34963
		}
	],
	"buffers":[
		{
			"byteLength":93012,
			"uri":"ar_1.bin"
		}
	]
}
